<?xml version="1.0" standalone="no"?><!DOCTYPE svg PUBLIC "-//W3C//DTD SVG 1.1//EN" "http://www.w3.org/Graphics/SVG/1.1/DTD/svg11.dtd"><svg t="1648092772630" class="icon" viewBox="0 0 1024 1024" version="1.1" xmlns="http://www.w3.org/2000/svg" p-id="1112" xmlns:xlink="http://www.w3.org/1999/xlink" width="32" height="32"><defs><style type="text/css"></style></defs><path d="M887.467 409.6h-8.534l-10.24-34.133h87.04V307.2H848.555l-17.408-59.05a102.23 102.23 0 0 0-99.328-77.483H292.18c-47.104 0-88.064 31.744-98.986 76.117l-17.75 60.416H68.267v68.267h87.04l-10.24 34.133h-8.534c-56.32 0-102.4 46.08-102.4 102.4v273.067H102.4v102.4h170.667v-102.4h477.866v102.4H921.6v-102.4h68.267V512c0-56.32-46.08-102.4-102.4-102.4zM259.072 264.875c3.755-15.36 17.408-25.942 33.11-25.942h439.637c15.701 0 29.354 10.582 33.45 27.307l42.326 143.36h-591.19l42.667-144.725zM136.533 477.867h89.088L214.357 512H102.4c0-18.773 15.36-34.133 34.133-34.133zM921.6 716.8H102.4V580.267h161.11l34.133-102.4h394.581l34.133 102.4H921.6V716.8zM775.51 512l-11.265-34.133h123.222c18.773 0 34.133 15.36 34.133 34.133H775.51zM375.466 682.667h273.066V614.4H375.467v68.267z" p-id="1113"></path></svg>