<?xml version="1.0" standalone="no"?><!DOCTYPE svg PUBLIC "-//W3C//DTD SVG 1.1//EN" "http://www.w3.org/Graphics/SVG/1.1/DTD/svg11.dtd"><svg t="1648093115811" class="icon" viewBox="0 0 1024 1024" version="1.1" xmlns="http://www.w3.org/2000/svg" p-id="7878" xmlns:xlink="http://www.w3.org/1999/xlink" width="32" height="32"><defs><style type="text/css"></style></defs><path d="M0 512a512 512 0 1 0 1024 0A512 512 0 1 0 0 512z" p-id="7879"></path><path d="M695.04 258.278H328.96a35.93 35.93 0 0 0-36.045 36.045v435.635a35.93 35.93 0 0 0 36.045 36.045h366.08a35.93 35.93 0 0 0 36.045-36.045V294.323a35.93 35.93 0 0 0-36.045-36.045z m-187.546 39.424v183.604l-46.182-28.442a17.472 17.472 0 0 0-9.011-2.534c-3.098 0-6.195 0.844-9.011 2.534l-45.62 28.442V297.702h109.824zM328.96 292.07h34.918v219.648c0 6.196 3.38 11.828 8.73 14.644 5.35 3.097 11.827 2.816 17.178-0.282l62.796-38.86 62.797 38.86c2.816 1.69 5.914 2.534 9.011 2.534 2.816 0 5.632-0.844 8.167-2.252 5.35-3.098 8.73-8.73 8.73-14.644V292.07H695.04a2.432 2.432 0 0 1 2.253 2.253v351.719H326.707V294.323c0-1.408 1.127-2.253 2.253-2.253z m366.08 439.86H328.96a2.432 2.432 0 0 1-2.253-2.253v-50.125h370.586v50.125c0 1.408-1.127 2.253-2.253 2.253z" p-id="7880"></path><path d="M378.355 317.734v-9.676V731.93h318.938V317.734z" p-id="7881"></path></svg>