<?xml version="1.0" standalone="no"?><!DOCTYPE svg PUBLIC "-//W3C//DTD SVG 1.1//EN" "http://www.w3.org/Graphics/SVG/1.1/DTD/svg11.dtd"><svg t="1648093211080" class="icon" viewBox="0 0 1024 1024" version="1.1" xmlns="http://www.w3.org/2000/svg" p-id="14346" xmlns:xlink="http://www.w3.org/1999/xlink" width="32" height="32"><defs><style type="text/css"></style></defs><path d="M837.818 512h46.546c0-205.638-166.726-372.364-372.364-372.364-205.638 0-372.364 166.726-372.364 372.364h46.546c0-179.945 145.873-325.818 325.818-325.818S837.818 332.055 837.818 512z" p-id="14347"></path><path d="M1024 512C1024 229.236 794.764 0 512 0S0 229.236 0 512s229.236 512 512 512 512-229.236 512-512z m-977.455 0C46.545 254.93 254.93 46.545 512 46.545S977.455 254.93 977.455 512 769.07 977.455 512 977.455 46.545 769.07 46.545 512z" p-id="14348"></path><path d="M600.39 649.588l17.454-358.865-106.356 343.18 22.947 129.861z" p-id="14349"></path></svg>